Coordinates
version=1
nRows=27
nColumns=38
inDegrees=no

Units are S.I. units (second, meters, Newtons, ...)
If the header above contains a line with 'inDegrees', this indicates whether rotational values are in degrees (yes) or radians (no).

endheader
time	pelvis_tilt	pelvis_list	pelvis_rotation	pelvis_tx	pelvis_ty	pelvis_tz	hip_flexion_r	hip_adduction_r	hip_rotation_r	knee_angle_r	ankle_angle_r	subtalar_angle_r	mtp_angle_r	hip_flexion_l	hip_adduction_l	hip_rotation_l	knee_angle_l	ankle_angle_l	subtalar_angle_l	mtp_angle_l	lumbar_extension	lumbar_bending	lumbar_rotation	arm_flex_r	arm_add_r	arm_rot_r	elbow_flex_r	pro_sup_r	wrist_flex_r	wrist_dev_r	arm_flex_l	arm_add_l	arm_rot_l	elbow_flex_l	pro_sup_l	wrist_flex_l	wrist_dev_l
0.55	-0.118525	0.0357645	-0.0409387	1.01851	1.04187	-0.335606	0.63279	0.0306389	0.00167151	-0.315071	-0.188979	0.0519412	3.09509e-06	-0.115322	0.0104959	-0.172225	-1.22564	-0.208127	0.0499489	-5.31964e-05	-0.0365851	0.0142323	-0.062826	-0.957431	-0.28049	-0.390551	1.96301	1.77826	-0.00659817	0.0450029	-0.506513	-0.23216	-0.0050262	2.39164	1.82143	0.0627007	0.0400454
0.56	-0.119174	0.0320827	-0.0418181	1.01724	1.03663	-0.335069	0.627367	0.0404688	-0.0085285	-0.371176	-0.157229	0.0519412	3.09509e-06	-0.0745709	-0.0202244	-0.190223	-1.35349	-0.169049	0.0499489	-5.31964e-05	-0.0382238	0.0191403	-0.0501181	-0.934476	-0.297987	-0.382244	1.97076	1.77374	-0.00659817	0.0450029	-0.534797	-0.239083	-0.0116458	2.34289	1.80542	0.0627007	0.0400454
0.57	-0.120157	0.0288851	-0.0427775	1.01554	1.03066	-0.33475	0.620845	0.050858	-0.0123122	-0.432309	-0.110085	0.0519412	3.09509e-06	-0.0280112	-0.0462664	-0.202587	-1.47285	-0.131747	0.0499489	-5.31964e-05	-0.0404508	0.0235958	-0.0365439	-0.904382	-0.31526	-0.370644	1.9708	1.77048	-0.00659817	0.0450029	-0.559959	-0.245211	-0.0191005	2.28855	1.79861	0.0627007	0.0400454
0.58	-0.121464	0.026198	-0.0438241	1.0134	1.02403	-0.334641	0.613061	0.0616952	-0.00998651	-0.497913	-0.0482715	0.0519412	3.09509e-06	0.0243292	-0.0676012	-0.209388	-1.58358	-0.0963064	0.0499489	-5.31964e-05	-0.0432644	0.0275765	-0.0221135	-0.867167	-0.33229	-0.355755	1.9632	1.76853	-0.00659817	0.0450029	-0.582022	-0.250525	-0.0274038	2.22877	1.80106	0.0627007	0.0400454
0.59	-0.123075	0.0240979	-0.0449846	1.01079	1.01696	-0.334754	0.603517	0.0726379	-0.00235474	-0.566329	0.0260498	0.0519412	3.09509e-06	0.0823337	-0.0841621	-0.210875	-1.68529	-0.0629291	0.0499489	-5.31964e-05	-0.0466519	0.0310033	-0.00685311	-0.82294	-0.349007	-0.337616	1.94822	1.76794	-0.00659817	0.0450029	-0.601087	-0.254995	-0.0365923	2.16404	1.81286	0.0627007	0.0400454
0.6	-0.124944	0.0227383	-0.0462976	1.00772	1.00974	-0.335103	0.591311	0.0830773	0.0093496	-0.634615	0.10909	0.0519412	3.09509e-06	0.145716	-0.0958913	-0.207566	-1.77725	-0.0318745	0.0499489	-5.31964e-05	-0.0505609	0.0337328	0.00919812	-0.772034	-0.365256	-0.316372	1.92654	1.76881	-0.00659817	0.0450029	-0.617399	-0.25859	-0.0467122	2.09543	1.83398	0.0627007	0.0400454
0.61	-0.126971	0.0223309	-0.0477879	1.00433	1.00276	-0.335683	0.575215	0.0922001	0.0236939	-0.698826	0.19587	0.0519412	3.09509e-06	0.213953	-0.102826	-0.200289	-1.85838	-0.0033601	0.0499489	-5.31964e-05	-0.0548466	0.0355633	0.0259911	-0.715183	-0.380771	-0.292364	1.8995	1.77124	-0.00659817	0.0450029	-0.631426	-0.261334	-0.0577827	2.02477	1.86385	0.0627007	0.0400454
0.62	-0.129105	0.0230685	-0.0494321	1.00076	0.996361	-0.33646	0.553876	0.0990966	0.0392625	-0.754649	0.281002	0.0519412	3.09509e-06	0.286247	-0.105177	-0.190165	-1.92735	0.0225189	0.0499489	-5.31964e-05	-0.0592345	0.0362313	0.0434601	-0.653679	-0.395158	-0.266218	1.86926	1.77534	-0.00659817	0.0450029	-0.643934	-0.263341	-0.0697485	1.95468	1.90103	0.0627007	0.0400454
0.63	-0.131424	0.0250629	-0.0511345	0.997117	0.990823	-0.337369	0.526071	0.102897	0.0547536	-0.798123	0.359359	0.0519412	3.09509e-06	0.361548	-0.103374	-0.178527	-1.98282	0.0458082	0.0499489	-5.31964e-05	-0.063293	0.0354284	0.0615099	-0.589441	-0.407904	-0.238893	1.8388	1.7812	-0.00659817	0.0450029	-0.656003	-0.264852	-0.0824392	1.8885	1.94275	0.0627007	0.0400454
0.64	-0.134173	0.0284054	-0.0526772	0.993558	0.98632	-0.338353	0.490934	0.102929	0.0689691	-0.826216	0.426389	0.0519412	3.09509e-06	0.438583	-0.0980627	-0.166787	-2.02358	0.0666521	0.0499489	-5.31964e-05	-0.0664571	0.0328688	0.0800233	-0.524927	-0.418432	-0.211638	1.81174	1.7889	-0.00659817	0.0450029	-0.668955	-0.266217	-0.0955543	1.82995	1.98475	0.0627007	0.0400454
0.65	-0.137566	0.0331616	-0.0537511	0.990318	0.982995	-0.33936	0.448167	0.0988078	0.0807742	-0.837151	0.478157	0.0519412	3.09509e-06	0.515975	-0.0900132	-0.156292	-2.04874	0.0852268	0.0499489	-5.31964e-05	-0.0680055	0.0283259	0.098814	-0.462861	-0.426185	-0.185829	1.7919	1.7986	-0.00659817	0.0450029	-0.684207	-0.267827	-0.108711	1.78266	2.02166	0.0627007	0.0400454
0.66	-0.141865	0.0393213	-0.0539674	0.987634	0.980929	-0.340362	0.398068	0.0904692	0.0890729	-0.830516	0.511296	0.0519412	3.09509e-06	0.592308	-0.079975	-0.148167	-2.05781	0.101689	0.0499489	-5.31964e-05	-0.0671997	0.0216342	0.11756	-0.405822	-0.43075	-0.162703	1.78272	1.81061	-0.00659817	0.0450029	-0.703081	-0.269996	-0.121565	1.74959	2.04806	0.0627007	0.0400454
0.67	-0.147333	0.0467741	-0.0528813	0.985689	0.98011	-0.341329	0.341488	0.0781916	0.0928294	-0.807169	0.523059	0.0519412	3.09509e-06	0.666203	-0.0685405	-0.143186	-2.05074	0.116172	0.0499489	-5.31964e-05	-0.0634171	0.0127286	0.135749	-0.355804	-0.431976	-0.143075	1.78665	1.82549	-0.00659817	0.0450029	-0.726583	-0.272836	-0.133938	1.73254	2.05976	0.0627007	0.0400454
0.68	-0.154155	0.0552941	-0.0500259	0.984593	0.980454	-0.342248	0.279746	0.0625977	0.0911519	-0.769048	0.51152	0.0519412	3.09509e-06	0.736375	-0.0560599	-0.141681	-2.0279	0.128834	0.0499489	-5.31964e-05	-0.0562733	0.00169343	0.152672	-0.313913	-0.430053	-0.127135	1.80474	1.84406	-0.00659817	0.0450029	-0.755233	-0.276175	-0.14591	1.73178	2.05493	0.0627007	0.0400454
0.69	-0.16239	0.0645383	-0.0449687	0.984372	0.981819	-0.343141	0.214522	0.0446314	0.083461	-0.718971	0.475892	0.0519412	3.09509e-06	0.801658	-0.0426181	-0.143521	-1.98995	0.139904	0.0499489	-5.31964e-05	-0.045722	-0.0112005	0.167518	-0.280294	-0.425533	-0.114434	1.8365	1.86713	-0.00659817	0.0450029	-0.788919	-0.279559	-0.157813	1.74607	2.03462	0.0627007	0.0400454
0.7	-0.172038	0.0741669	-0.0373675	0.984962	0.984026	-0.344052	0.147741	0.0255219	0.0697201	-0.660496	0.416891	0.0519412	3.09509e-06	0.861002	-0.0280809	-0.148161	-1.93775	0.149708	0.0499489	-5.31964e-05	-0.0321477	-0.0254466	0.179547	-0.254295	-0.41927	-0.104062	1.88004	1.89517	-0.00659817	0.0450029	-0.82685	-0.282342	-0.170136	1.77285	2.00254	0.0627007	0.0400454
0.71	-0.182847	0.0836948	-0.0270955	0.986225	0.986853	-0.345041	0.0815322	0.00665119	0.0506979	-0.597798	0.337027	0.0519412	3.09509e-06	0.913493	-0.0121624	-0.154757	-1.87226	0.158629	0.0499489	-5.31964e-05	-0.0162672	-0.0404126	0.188266	-0.234781	-0.412309	-0.0949416	1.93242	1.92793	-0.00659817	0.0450029	-0.867578	-0.283818	-0.183377	1.80871	1.96419	0.0627007	0.0400454
0.72	-0.194381	0.0926113	-0.0143123	0.987977	0.990035	-0.346186	0.0180925	-0.0105249	0.0281435	-0.535568	0.240676	0.0519412	3.09509e-06	0.958311	0.00540862	-0.162309	-1.79443	0.16703	0.0499489	-5.31964e-05	0.000906354	-0.055355	0.193593	-0.220473	-0.405723	-0.0861302	1.9901	1.96425	-0.00659817	0.0450029	-0.909122	-0.283365	-0.197903	1.8499	1.92571	0.0627007	0.0400454
0.73	-0.206051	0.100401	0.000481513	0.990005	0.99332	-0.347513	-0.0404644	-0.0245856	0.00478835	-0.478855	0.133878	0.0519412	3.09509e-06	0.994702	0.0247047	-0.169797	-1.70523	0.175159	0.0499489	-5.31964e-05	0.0181692	-0.0694711	0.195923	-0.210203	-0.400458	-0.0770196	2.04929	2.00206	-0.00659817	0.0450029	-0.94919	-0.280545	-0.213849	1.89281	1.8927	0.0627007	0.0400454
0.74	-0.217179	0.106496	0.0164396	0.992077	0.996506	-0.34898	-0.092283	-0.0342679	-0.0159201	-0.432777	0.0238212	0.0519412	3.09509e-06	1.02198	0.0454489	-0.176308	-1.60571	0.183076	0.0499489	-5.31964e-05	0.0342631	-0.0819853	0.196051	-0.203067	-0.39719	-0.0674125	2.10626	2.03863	-0.00659817	0.0450029	-0.985445	-0.275152	-0.231076	1.93433	1.86924	0.0627007	0.0400454
0.75	-0.227109	0.110431	0.0324727	0.993989	0.99944	-0.35048	-0.135921	-0.0385554	-0.030411	-0.402142	-0.0819233	0.0519412	3.09509e-06	1.03959	0.0669405	-0.181117	-1.49718	0.190622	0.0499489	-5.31964e-05	0.0480131	-0.0921669	0.194994	-0.198454	-0.396231	-0.0574953	2.15753	2.07101	-0.00659817	0.0450029	-1.0158	-0.267209	-0.249174	1.97203	1.85727	0.0627007	0.0400454
0.76	-0.23524	0.11187	0.0474539	0.995595	1.002	-0.351874	-0.170418	-0.0368375	-0.0358431	-0.390998	-0.176328	0.0519412	3.09509e-06	1.04721	0.0881354	-0.183746	-1.38135	0.197404	0.0499489	-5.31964e-05	0.0584912	-0.0994274	0.193719	-0.196014	-0.397493	-0.0477558	2.2001	2.09655	-0.00659817	0.0450029	-1.03866	-0.256945	-0.267509	2.00429	1.85648	0.0627007	0.0400454
0.77	-0.241109	0.110637	0.0604523	0.996811	1.00408	-0.353024	-0.195301	-0.0290793	-0.0310296	-0.40224	-0.253858	0.0519412	3.09509e-06	1.04495	0.10785	-0.184001	-1.26054	0.202803	0.0499489	-5.31964e-05	0.0651153	-0.103427	0.192874	-0.195585	-0.400521	-0.0388713	2.23159	2.11328	-0.00659817	0.0450029	-1.05305	-0.244759	-0.285296	2.03021	1.86462	0.0627007	0.0400454
0.78	-0.244449	0.106764	0.0709344	0.997614	1.00558	-0.35385	-0.210552	-0.015954	-0.0171021	-0.437318	-0.311256	0.0519412	3.09509e-06	1.03341	0.125	-0.181979	-1.13778	0.20601	0.0499489	-5.31964e-05	0.0676859	-0.104145	0.192614	-0.197125	-0.404577	-0.0315918	2.25035	2.12022	-0.00659817	0.0450029	-1.05871	-0.231205	-0.301697	2.04954	1.87828	0.0627007	0.0400454
0.79	-0.245213	0.10055	0.0788448	0.998031	1.00643	-0.354347	-0.216492	0.00109388	0.00242009	-0.496149	-0.34789	0.0519412	3.09509e-06	1.01375	0.138777	-0.178087	-1.01685	0.206131	0.0499489	-5.31964e-05	0.0663824	-0.101894	0.192582	-0.20066	-0.408781	-0.0266174	2.25561	2.11754	-0.00659817	0.0450029	-1.05595	-0.216961	-0.315947	2.06253	1.89385	0.0627007	0.0400454
0.8	-0.243639	0.0925479	0.0845336	0.998114	1.00655	-0.354589	-0.213686	0.0199219	0.0223759	-0.577209	-0.365487	0.0519412	3.09509e-06	0.98771	0.148754	-0.173032	-0.902194	0.202385	0.0499489	-5.31964e-05	0.0616988	-0.097297	0.19206	-0.206244	-0.41227	-0.0244804	2.24741	2.10652	-0.00659817	0.0450029	-1.04561	-0.202801	-0.327446	2.06977	1.90832	0.0627007	0.0400454
0.81	-0.240178	0.0834551	0.0886003	0.997912	1.00587	-0.354675	-0.202831	0.0379191	0.037341	-0.677756	-0.367301	0.0519412	3.09509e-06	0.957433	0.154916	-0.167755	-0.798654	0.194365	0.0499489	-5.31964e-05	0.0543771	-0.0912318	0.190194	-0.21393	-0.414339	-0.02545	2.22652	2.08937	-0.00659817	0.0450029	-1.02876	-0.189547	-0.335815	2.07201	1.91978	0.0627007	0.0400454
